#!OML:ASF F:\VICON\USERDATA\INSTALL\rory3\rory3.ASF
:FULLY-SPECIFIED
:DEGREES
593
root -0.0617182 16.8761 16.9661 -159.634 -28.4305 -176.704
lowerback -12.3598 0.490162 3.08121
upperback -9.19047 -0.683704 1.68463
thorax -2.71634 -0.90251 -0.0184336
lowerneck -13.4886 -8.692 -12.2453
upperneck 23.1785 -8.32436 -10.8534
head 9.7949 -6.63049 -2.95362
rclavicle 2.07481e-015 1.45113e-014
rhumerus -69.2286 34.5319 -117.277
rradius 35.9513
rwrist -32.9143
rhand 22.4838 2.73687
rfingers 7.12502
rthumb 46.8415 -19.9989
lclavicle 2.07481e-015 1.45113e-014
lhumerus -65.9203 -16.1498 100.251
lradius 41.6953
lwrist 9.71297
lhand 25.9533 18.4781
lfingers 7.12502
lthumb 50.0349 39.6825
rfemur -30.0919 4.91998 35.0327
rtibia 28.683
rfoot -39.9212 -30.9468
rtoes 40.0346
lfemur -24.7143 32.6076 -24.4333
ltibia 55.2745
lfoot 17.3481 46.5374
ltoes 35.6666
594
root -0.0666531 16.8752 16.9703 -159.453 -28.439 -176.733
lowerback -12.6888 0.473958 3.12959
upperback -9.02173 -0.715428 1.74004
thorax -2.36071 -0.907712 0.000543288
lowerneck -14.075 -8.449 -11.8025
upperneck 23.0307 -7.88764 -11.2628
head 9.81066 -6.43958 -3.1286
rclavicle 3.95706e-014 5.1684e-015
rhumerus -69.1515 35.0492 -117.282
rradius 36.1807
rwrist -33.1568
rhand 22.4201 2.68637
rfingers 7.12502
rthumb 46.7826 -20.075
lclavicle 3.95706e-014 5.1684e-015
lhumerus -65.4715 -16.1313 100.19
lradius 41.7309
lwrist 9.82961
lhand 26.0349 18.5862
lfingers 7.12502
lthumb 50.1096 39.7512
rfemur -30.3545 3.68588 35.2952
rtibia 28.7277
rfoot -38.8553 -30.386
rtoes 39.2358
lfemur -24.9068 32.308 -24.5905
ltibia 55.2564
lfoot 15.3289 47.1193
ltoes 36.798
595
root -0.0615189 16.8733 16.9716 -159.422 -28.3686 -176.822
lowerback -12.8247 0.521901 2.97701
upperback -8.84907 -0.622491 1.72542
thorax -2.1007 -0.839409 0.0747303
lowerneck -14.1605 -8.24997 -11.2467
upperneck 22.7003 -7.65341 -11.6127
head 9.66233 -6.30319 -3.28116
rclavicle -4.24902e-014 -1.03368e-014
rhumerus -68.8761 35.2175 -117.03
rradius 36.3977
rwrist -33.339
rhand 22.599 2.34441
rfingers 7.12502
rthumb 46.9481 -20.3446
lclavicle -4.24902e-014 -1.03368e-014
lhumerus -65.1605 -16.3743 100.236
lradius 41.7537
lwrist 9.89588
lhand 25.9725 18.3936
lfingers 7.12502
lthumb 50.0525 39.5887
rfemur -30.3635 3.32099 35.3431
rtibia 28.765
rfoot -38.5286 -30.2561
rtoes 38.8634
lfemur -24.824 32.2475 -24.6203
ltibia 55.2175
lfoot 13.0642 47.5918
ltoes 38.0952
596
root -0.047143 16.8694 16.9733 -159.702 -28.2452 -176.883
lowerback -12.551 0.539256 2.73312
upperback -8.70629 -0.532988 1.75467
thorax -2.09139 -0.766951 0.251224
lowerneck -14.1304 -8.02986 -10.9867
upperneck 22.4888 -7.38781 -11.7441
head 9.56379 -6.16079 -3.31419
rclavicle 4.08875e-014 5.20816e-014
rhumerus -68.7909 35.2432 -116.921
rradius 36.5395
rwrist -33.5231
rhand 22.5294 2.15909
rfingers 7.12502
rthumb 46.8837 -20.5582
lclavicle 4.08875e-014 5.20816e-014
lhumerus -65.058 -16.5458 100.329
lradius 41.8081
lwrist 9.96971
lhand 26.0249 18.5541
lfingers 7.12502
lthumb 50.1005 39.724
rfemur -30.0424 3.45576 35.3055
rtibia 28.8146
rfoot -38.7344 -30.2492
rtoes 39.0243
lfemur -24.3449 32.4844 -24.3438
ltibia 55.1779
lfoot 12.7328 47.5694
ltoes 38.8066
597
root -0.0517673 16.8694 16.9709 -159.847 -28.1264 -176.764
lowerback -12.5711 0.588262 2.84604
upperback -8.61349 -0.472389 1.82935
thorax -1.98155 -0.733325 0.270036
lowerneck -14.2968 -7.71736 -10.7753
upperneck 22.3884 -6.94677 -11.8638
head 9.54954 -5.95386 -3.33466
rclavicle 4.8081e-015 -1.27222e-014
rhumerus -68.7464 35.3275 -116.822
rradius 36.5538
rwrist -33.5468
rhand 22.6934 2.10173
rfingers 7.12502
rthumb 47.0354 -20.5489
lclavicle 4.8081e-015 -1.27222e-014
lhumerus -64.9708 -16.5156 100.349
lradius 41.8674
lwrist 10.0004
lhand 26.0353 18.6252
lfingers 7.12502
lthumb 50.11 39.79
rfemur -29.9401 3.54305 35.3522
rtibia 28.8306
rfoot -38.7022 -30.2299
rtoes 39.0399
lfemur -24.1382 32.5374 -24.1845
ltibia 55.1083
lfoot 13.5517 47.2179
ltoes 38.5776
598
root -0.052822 16.8707 16.9717 -159.82 -28.0072 -176.807
lowerback -12.5887 0.620409 2.82199
upperback -8.64617 -0.433721 1.81536
thorax -2.0061 -0.716558 0.273517
lowerneck -13.6373 -7.29732 -10.3963
upperneck 21.7204 -6.58159 -11.8856
head 9.17147 -5.70041 -3.2716
rclavicle -2.25496e-015 -1.31198e-014
rhumerus -68.9919 35.4407 -117.147
rradius 36.5598
rwrist -33.787
rhand 22.6001 2.05691
rfingers 7.12502
rthumb 46.9491 -20.6317
lclavicle -2.25496e-015 -1.31198e-014
lhumerus -65.0677 -16.5731 100.406
lradius 41.9091
lwrist 10.124
lhand 25.8698 18.5851
lfingers 7.12502
lthumb 49.9585 39.8296
rfemur -29.9484 3.56141 35.291
rtibia 28.838
rfoot -38.5845 -30.2687
rtoes 38.913
lfemur -24.0679 32.4975 -24.2455
ltibia 55.0272
lfoot 13.9512 47.0525
ltoes 38.3158
599
root -0.0562253 16.8729 16.9808 -159.642 -27.8457 -176.877
lowerback -12.729 0.66327 2.85224
upperback -8.58045 -0.384361 1.82239
thorax -1.86057 -0.689545 0.266734
lowerneck -13.1579 -6.86655 -10.1878
upperneck 20.7587 -6.16099 -11.7247
head 8.74505 -5.38778 -3.11369
rclavicle -1.9102e-014 -2.38542e-014
rhumerus -68.9245 35.6937 -117.127
rradius 36.6221
rwrist -33.9648
rhand 22.4675 2.11437
rfingers 7.12502
rthumb 46.8264 -20.6279
lclavicle -1.9102e-014 -2.38542e-014
lhumerus -64.7551 -16.5812 100.403
lradius 41.7963
lwrist 10.2545
lhand 25.6913 18.4867
lfingers 7.12502
lthumb 49.795 39.8164
rfemur -30.1437 3.39227 35.2115
rtibia 28.8474
rfoot -38.2721 -30.1377
rtoes 38.7085
lfemur -24.2489 32.5261 -24.5086
ltibia 54.9685
lfoot 15.2876 46.7512
ltoes 37.6496
600
root -0.0534407 16.8713 16.9801 -159.661 -27.8268 -176.957
lowerback -12.8426 0.674949 2.74063
upperback -8.28048 -0.328594 1.90498
thorax -1.48035 -0.630899 0.415272
lowerneck -13.8507 -6.59028 -10.2038
upperneck 20.5645 -5.65784 -11.5645
head 8.81857 -5.12695 -3.02234
rclavicle 1.50517e-014 0
rhumerus -68.3911 35.8747 -116.46
rradius 36.759
rwrist -33.9419
rhand 22.4047 2.275
rfingers 7.12502
rthumb 46.7683 -20.4926
lclavicle 1.50517e-014 0
lhumerus -64.0846 -16.7078 100.425
lradius 41.5904
lwrist 10.2414
lhand 25.6816 18.238
lfingers 7.12502
lthumb 49.7862 39.5723
rfemur -30.0842 3.6152 35.0729
rtibia 28.842
rfoot -38.5332 -30.1758
rtoes 39.04
lfemur -24.166 32.6485 -24.5138
ltibia 54.9483
lfoot 17.7488 45.9765
ltoes 36.556
601
root -0.0551351 16.8749 16.9838 -159.611 -27.7181 -176.929
lowerback -12.9358 0.785077 2.78249
upperback -8.20933 -0.186327 1.9019
thorax -1.35367 -0.556719 0.403121
lowerneck -14.3186 -6.2874 -9.78695
upperneck 20.647 -5.18975 -11.785
head 8.91778 -4.91539 -3.13195
rclavicle -4.5472e-015 -8.34896e-015
rhumerus -68.2487 35.8533 -116.252
rradius 36.8768
rwrist -34.069
rhand 22.1509 2.48808
rfingers 7.12502
rthumb 46.5333 -20.3811
lclavicle -4.5472e-015 -8.34896e-015
lhumerus -63.909 -16.9457 100.506
lradius 41.5539
lwrist 10.3797
lhand 25.6116 18.2574
lfingers 7.12502
lthumb 49.7221 39.6249
rfemur -30.1215 3.72084 35.0395
rtibia 28.7952
rfoot -38.4894 -30.1351
rtoes 39.0193
lfemur -24.2554 32.7426 -24.5539
ltibia 54.9773
lfoot 18.2867 45.6863
ltoes 36.466
602
root -0.0549314 16.8764 16.9827 -159.703 -27.7423 -176.81
lowerback -12.9918 0.827585 2.86588
upperback -8.2504 -0.149772 1.91614
thorax -1.36688 -0.545785 0.375786
lowerneck -13.7382 -5.88617 -9.20773
upperneck 20.1794 -4.83481 -12.0542
head 8.62361 -4.69417 -3.21626
rclavicle 4.28629e-014 -2.38542e-014
rhumerus -68.4596 35.6984 -116.383
rradius 36.9833
rwrist -34.1875
rhand 22.3404 2.21718
rfingers 7.12502
rthumb 46.7088 -20.5763
lclavicle 4.28629e-014 -2.38542e-014
lhumerus -64.1142 -17.0816 100.584
lradius 41.606
lwrist 10.486
lhand 25.604 18.5244
lfingers 7.12502
lthumb 49.7151 39.8954
rfemur -30.015 3.87489 35.1313
rtibia 28.7171
rfoot -38.675 -30.2542
rtoes 39.1158
lfemur -24.2108 32.7914 -24.3551
ltibia 55.0649
lfoot 17.6325 45.7
ltoes 37.0254
603
root -0.0535009 16.8777 16.9837 -159.796 -27.6962 -176.639
lowerback -12.9826 0.903427 2.93607
upperback -8.42998 -0.0814234 1.93819
thorax -1.56092 -0.530108 0.369982
lowerneck -12.6751 -5.50538 -8.7292
upperneck 19.6415 -4.58873 -12.2055
head 8.225 -4.50413 -3.2358
rclavicle -5.98652e-014 -3.4191e-014
rhumerus -68.8314 35.2767 -116.527
rradius 37.0018
rwrist -34.0205
rhand 22.5037 2.09452
rfingers 7.12502
rthumb 46.8599 -20.6332
lclavicle -5.98652e-014 -3.4191e-014
lhumerus -64.5716 -17.1129 100.676
lradius 41.7048
lwrist 10.5863
lhand 25.7013 18.7745
lfingers 7.12502
lthumb 49.8043 40.0994
rfemur -29.9207 3.94765 35.2901
rtibia 28.6106
rfoot -38.6375 -30.3116
rtoes 39.0105
lfemur -24.2229 32.8834 -24.1625
ltibia 55.1559
lfoot 17.8334 45.4739
ltoes 36.9401
